<?xml version="1.0" encoding="UTF-8"?>
<!--Generator: Apple Native CoreSVG 232.5-->
<!DOCTYPE svg
PUBLIC "-//W3C//DTD SVG 1.1//EN"
       "http://www.w3.org/Graphics/SVG/1.1/DTD/svg11.dtd">
<svg version="1.1" xmlns="http://www.w3.org/2000/svg" xmlns:xlink="http://www.w3.org/1999/xlink" width="3300" height="2200">
 <!--glyph: "", point size: 100.0, font version: "19.0d8e1", template writer version: "128"-->
 <style>.monochrome-0 {-sfsymbols-motion-group:1}
.monochrome-1 {opacity:0.0;-sfsymbols-clear-behind:true;-sfsymbols-motion-group:0;-sfsymbols-always-pulses:true}

.multicolor-0:tintColor {-sfsymbols-motion-group:1}
.multicolor-1:white {-sfsymbols-motion-group:0;-sfsymbols-always-pulses:true}

.hierarchical-0:tertiary {-sfsymbols-motion-group:1}
.hierarchical-1:primary {-sfsymbols-motion-group:0}

.SFSymbolsPreviewWireframe {fill:none;opacity:1.0;stroke:black;stroke-width:0.5}
</style>
 <g id="Notes">
  <rect height="2200" id="artboard" style="fill:white;opacity:1" width="3300" x="0" y="0"/>
  <line style="fill:none;stroke:black;opacity:1;stroke-width:0.5;" x1="263" x2="3036" y1="292" y2="292"/>
  <text style="stroke:none;fill:black;font-family:sans-serif;font-size:13;font-weight:bold;" transform="matrix(1 0 0 1 263 322)">Weight/Scale Variations</text>
  <text style="stroke:none;fill:black;font-family:sans-serif;font-size:13;text-anchor:middle;" transform="matrix(1 0 0 1 559.711 322)">Ultralight</text>
  <text style="stroke:none;fill:black;font-family:sans-serif;font-size:13;text-anchor:middle;" transform="matrix(1 0 0 1 856.422 322)">Thin</text>
  <text style="stroke:none;fill:black;font-family:sans-serif;font-size:13;text-anchor:middle;" transform="matrix(1 0 0 1 1153.13 322)">Light</text>
  <text style="stroke:none;fill:black;font-family:sans-serif;font-size:13;text-anchor:middle;" transform="matrix(1 0 0 1 1449.84 322)">Regular</text>
  <text style="stroke:none;fill:black;font-family:sans-serif;font-size:13;text-anchor:middle;" transform="matrix(1 0 0 1 1746.56 322)">Medium</text>
  <text style="stroke:none;fill:black;font-family:sans-serif;font-size:13;text-anchor:middle;" transform="matrix(1 0 0 1 2043.27 322)">Semibold</text>
  <text style="stroke:none;fill:black;font-family:sans-serif;font-size:13;text-anchor:middle;" transform="matrix(1 0 0 1 2339.98 322)">Bold</text>
  <text style="stroke:none;fill:black;font-family:sans-serif;font-size:13;text-anchor:middle;" transform="matrix(1 0 0 1 2636.69 322)">Heavy</text>
  <text style="stroke:none;fill:black;font-family:sans-serif;font-size:13;text-anchor:middle;" transform="matrix(1 0 0 1 2933.4 322)">Black</text>
  <line style="fill:none;stroke:black;opacity:1;stroke-width:0.5;" x1="263" x2="3036" y1="1903" y2="1903"/>
  <g transform="matrix(0.2 0 0 0.2 263 1933)">
   <path d="m46.2402 4.15039c21.5332 0 39.4531-17.8711 39.4531-39.4043s-17.9688-39.4043-39.502-39.4043c-21.4844 0-39.3555 17.8711-39.3555 39.4043s17.9199 39.4043 39.4043 39.4043Zm0-7.42188c-17.7246 0-31.8848-14.209-31.8848-31.9824s14.1113-31.9824 31.8359-31.9824c17.7734 0 32.0312 14.209 32.0312 31.9824s-14.209 31.9824-31.9824 31.9824Zm-17.9688-31.9824c0 2.14844 1.51367 3.61328 3.75977 3.61328h10.498v10.5957c0 2.19727 1.46484 3.71094 3.61328 3.71094 2.24609 0 3.71094-1.51367 3.71094-3.71094v-10.5957h10.5957c2.19727 0 3.71094-1.46484 3.71094-3.61328 0-2.19727-1.51367-3.71094-3.71094-3.71094h-10.5957v-10.5469c0-2.24609-1.46484-3.75977-3.71094-3.75977-2.14844 0-3.61328 1.51367-3.61328 3.75977v10.5469h-10.498c-2.24609 0-3.75977 1.51367-3.75977 3.71094Z"/>
  </g>
  <g transform="matrix(0.2 0 0 0.2 281.506 1933)">
   <path d="m58.5449 14.5508c27.2461 0 49.8047-22.6074 49.8047-49.8047 0-27.2461-22.6074-49.8047-49.8535-49.8047-27.1973 0-49.7559 22.5586-49.7559 49.8047 0 27.1973 22.6074 49.8047 49.8047 49.8047Zm0-8.30078c-23.0469 0-41.4551-18.457-41.4551-41.5039s18.3594-41.5039 41.4062-41.5039 41.5527 18.457 41.5527 41.5039-18.457 41.5039-41.5039 41.5039Zm-22.6562-41.5039c0 2.39258 1.66016 4.00391 4.15039 4.00391h14.3555v14.4043c0 2.44141 1.66016 4.15039 4.05273 4.15039 2.44141 0 4.15039-1.66016 4.15039-4.15039v-14.4043h14.4043c2.44141 0 4.15039-1.61133 4.15039-4.00391 0-2.44141-1.70898-4.15039-4.15039-4.15039h-14.4043v-14.3555c0-2.49023-1.70898-4.19922-4.15039-4.19922-2.39258 0-4.05273 1.70898-4.05273 4.19922v14.3555h-14.3555c-2.49023 0-4.15039 1.70898-4.15039 4.15039Z"/>
  </g>
  <g transform="matrix(0.2 0 0 0.2 304.924 1933)">
   <path d="m74.8535 28.3203c34.8145 0 63.623-28.8086 63.623-63.5742 0-34.8145-28.8574-63.623-63.6719-63.623-34.7656 0-63.5254 28.8086-63.5254 63.623 0 34.7656 28.8086 63.5742 63.5742 63.5742Zm0-9.08203c-30.1758 0-54.4434-24.3164-54.4434-54.4922 0-30.2246 24.2188-54.4922 54.3945-54.4922 30.2246 0 54.541 24.2676 54.541 54.4922 0 30.1758-24.2676 54.4922-54.4922 54.4922Zm-28.8574-54.4922c0 2.58789 1.85547 4.39453 4.58984 4.39453h19.7266v19.7754c0 2.68555 1.85547 4.58984 4.44336 4.58984 2.68555 0 4.54102-1.85547 4.54102-4.58984v-19.7754h19.7754c2.68555 0 4.58984-1.80664 4.58984-4.39453 0-2.73438-1.85547-4.58984-4.58984-4.58984h-19.7754v-19.7266c0-2.73438-1.85547-4.63867-4.54102-4.63867-2.58789 0-4.44336 1.9043-4.44336 4.63867v19.7266h-19.7266c-2.73438 0-4.58984 1.85547-4.58984 4.58984Z"/>
  </g>
  <text style="stroke:none;fill:black;font-family:sans-serif;font-size:13;font-weight:bold;" transform="matrix(1 0 0 1 263 1953)">Design Variations</text>
  <text style="stroke:none;fill:black;font-family:sans-serif;font-size:13;" transform="matrix(1 0 0 1 263 1971)">Symbols are supported in up to nine weights and three scales.</text>
  <text style="stroke:none;fill:black;font-family:sans-serif;font-size:13;" transform="matrix(1 0 0 1 263 1989)">For optimal layout with text and other symbols, vertically align</text>
  <text style="stroke:none;fill:black;font-family:sans-serif;font-size:13;" transform="matrix(1 0 0 1 263 2007)">symbols with the adjacent text.</text>
  <line style="fill:none;stroke:#00AEEF;stroke-width:0.5;opacity:1.0;" x1="776" x2="776" y1="1919" y2="1933"/>
  <g transform="matrix(0.2 0 0 0.2 776 1933)">
   <path d="m16.5527 0.78125c2.58789 0 3.85742-0.976562 4.78516-3.71094l6.29883-17.2363h28.8086l6.29883 17.2363c0.927734 2.73438 2.19727 3.71094 4.73633 3.71094 2.58789 0 4.24805-1.5625 4.24805-4.00391 0-0.830078-0.146484-1.61133-0.537109-2.63672l-22.9004-60.9863c-1.12305-2.97852-3.125-4.49219-6.25-4.49219-3.02734 0-5.07812 1.46484-6.15234 4.44336l-22.9004 61.084c-0.390625 1.02539-0.537109 1.80664-0.537109 2.63672 0 2.44141 1.5625 3.95508 4.10156 3.95508Zm13.4766-28.3691 11.8652-32.8613h0.244141l11.8652 32.8613Z"/>
  </g>
  <line style="fill:none;stroke:#00AEEF;stroke-width:0.5;opacity:1.0;" x1="792.836" x2="792.836" y1="1919" y2="1933"/>
  <text style="stroke:none;fill:black;font-family:sans-serif;font-size:13;font-weight:bold;" transform="matrix(1 0 0 1 776 1953)">Margins</text>
  <text style="stroke:none;fill:black;font-family:sans-serif;font-size:13;" transform="matrix(1 0 0 1 776 1971)">Leading and trailing margins on the left and right side of each symbol</text>
  <text style="stroke:none;fill:black;font-family:sans-serif;font-size:13;" transform="matrix(1 0 0 1 776 1989)">can be adjusted by modifying the x-location of the margin guidelines.</text>
  <text style="stroke:none;fill:black;font-family:sans-serif;font-size:13;" transform="matrix(1 0 0 1 776 2007)">Modifications are automatically applied proportionally to all</text>
  <text style="stroke:none;fill:black;font-family:sans-serif;font-size:13;" transform="matrix(1 0 0 1 776 2025)">scales and weights.</text>
  <g transform="matrix(0.2 0 0 0.2 1289 1933)">
   <path d="m14.209 9.32617 8.49609 8.54492c4.29688 4.3457 9.22852 4.05273 13.8672-1.07422l53.4668-58.9355-4.83398-4.88281-53.0762 58.3984c-1.75781 2.00195-3.41797 2.49023-5.76172 0.146484l-5.85938-5.81055c-2.34375-2.29492-1.80664-4.00391 0.195312-5.81055l57.373-54.0039-4.88281-4.83398-57.959 54.4434c-4.93164 4.58984-5.32227 9.47266-1.02539 13.8184Zm32.0801-90.9668c-2.09961 2.05078-2.24609 4.93164-1.07422 6.88477 1.17188 1.80664 3.4668 2.97852 6.68945 2.14844 7.32422-1.70898 14.9414-2.00195 22.0703 2.68555l-2.92969 7.27539c-1.70898 4.15039-0.830078 7.08008 1.85547 9.81445l11.4746 11.5723c2.44141 2.44141 4.49219 2.53906 7.32422 2.05078l5.32227-0.976562 3.32031 3.36914-0.195312 2.7832c-0.195312 2.49023 0.439453 4.39453 2.88086 6.78711l3.80859 3.71094c2.39258 2.39258 5.46875 2.53906 7.8125 0.195312l14.5508-14.5996c2.34375-2.34375 2.24609-5.32227-0.146484-7.71484l-3.85742-3.80859c-2.39258-2.39258-4.24805-3.17383-6.64062-2.97852l-2.88086 0.244141-3.22266-3.17383 1.2207-5.61523c0.634766-2.83203-0.146484-5.0293-3.07617-7.95898l-10.9863-10.9375c-16.6992-16.6016-38.8672-16.2109-53.3203-1.75781Zm7.4707 1.85547c12.1582-8.88672 28.6133-7.37305 39.7461 3.75977l12.1582 12.0605c1.17188 1.17188 1.36719 2.09961 1.02539 3.80859l-1.61133 7.42188 7.51953 7.42188 4.93164-0.292969c1.26953-0.0488281 1.66016 0.0488281 2.63672 1.02539l2.88086 2.88086-12.207 12.207-2.88086-2.88086c-0.976562-0.976562-1.12305-1.36719-1.07422-2.68555l0.341797-4.88281-7.4707-7.42188-7.61719 1.26953c-1.61133 0.341797-2.34375 0.195312-3.56445-0.976562l-10.0098-10.0098c-1.26953-1.17188-1.41602-2.00195-0.634766-3.85742l4.39453-10.4492c-7.8125-7.27539-17.9688-10.4004-28.125-7.42188-0.78125 0.195312-1.07422-0.439453-0.439453-0.976562Z"/>
  </g>
  <text style="stroke:none;fill:black;font-family:sans-serif;font-size:13;font-weight:bold;" transform="matrix(1 0 0 1 1289 1953)">Exporting</text>
  <text style="stroke:none;fill:black;font-family:sans-serif;font-size:13;" transform="matrix(1 0 0 1 1289 1971)">Symbols should be outlined when exporting to ensure the</text>
  <text style="stroke:none;fill:black;font-family:sans-serif;font-size:13;" transform="matrix(1 0 0 1 1289 1989)">design is preserved when submitting to Xcode.</text>
  <text id="template-version" style="stroke:none;fill:black;font-family:sans-serif;font-size:13;text-anchor:end;" transform="matrix(1 0 0 1 3036 1933)">Template v.5.0</text>
  <text style="stroke:none;fill:black;font-family:sans-serif;font-size:13;text-anchor:end;" transform="matrix(1 0 0 1 3036 1951)">Requires Xcode 15 or greater</text>
  <text id="descriptive-name" style="stroke:none;fill:black;font-family:sans-serif;font-size:13;text-anchor:end;" transform="matrix(1 0 0 1 3036 1969)">Generated from seal.fill</text>
  <text style="stroke:none;fill:black;font-family:sans-serif;font-size:13;text-anchor:end;" transform="matrix(1 0 0 1 3036 1987)">Typeset at 100.0 points</text>
  <text style="stroke:none;fill:black;font-family:sans-serif;font-size:13;" transform="matrix(1 0 0 1 263 726)">Small</text>
  <text style="stroke:none;fill:black;font-family:sans-serif;font-size:13;" transform="matrix(1 0 0 1 263 1156)">Medium</text>
  <text style="stroke:none;fill:black;font-family:sans-serif;font-size:13;" transform="matrix(1 0 0 1 263 1586)">Large</text>
 </g>
 <g id="Guides">
  <g id="H-reference" style="fill:#27AAE1;stroke:none;" transform="matrix(1 0 0 1 339 696)">
   <path d="M0.993654 0L3.63775 0L29.3281-67.1323L30.0303-67.1323L30.0303-70.459L28.1226-70.459ZM11.6885-24.4799L46.9815-24.4799L46.2315-26.7285L12.4385-26.7285ZM55.1196 0L57.7637 0L30.6382-70.459L29.4326-70.459L29.4326-67.1323Z"/>
  </g>
  <line id="Baseline-S" style="fill:none;stroke:#27AAE1;opacity:1;stroke-width:0.5;" x1="263" x2="3036" y1="696" y2="696"/>
  <line id="Capline-S" style="fill:none;stroke:#27AAE1;opacity:1;stroke-width:0.5;" x1="263" x2="3036" y1="625.541" y2="625.541"/>
  <g id="H-reference" style="fill:#27AAE1;stroke:none;" transform="matrix(1 0 0 1 339 1126)">
   <path d="M0.993654 0L3.63775 0L29.3281-67.1323L30.0303-67.1323L30.0303-70.459L28.1226-70.459ZM11.6885-24.4799L46.9815-24.4799L46.2315-26.7285L12.4385-26.7285ZM55.1196 0L57.7637 0L30.6382-70.459L29.4326-70.459L29.4326-67.1323Z"/>
  </g>
  <line id="Baseline-M" style="fill:none;stroke:#27AAE1;opacity:1;stroke-width:0.5;" x1="263" x2="3036" y1="1126" y2="1126"/>
  <line id="Capline-M" style="fill:none;stroke:#27AAE1;opacity:1;stroke-width:0.5;" x1="263" x2="3036" y1="1055.54" y2="1055.54"/>
  <g id="H-reference" style="fill:#27AAE1;stroke:none;" transform="matrix(1 0 0 1 339 1556)">
   <path d="M0.993654 0L3.63775 0L29.3281-67.1323L30.0303-67.1323L30.0303-70.459L28.1226-70.459ZM11.6885-24.4799L46.9815-24.4799L46.2315-26.7285L12.4385-26.7285ZM55.1196 0L57.7637 0L30.6382-70.459L29.4326-70.459L29.4326-67.1323Z"/>
  </g>
  <line id="Baseline-L" style="fill:none;stroke:#27AAE1;opacity:1;stroke-width:0.5;" x1="263" x2="3036" y1="1556" y2="1556"/>
  <line id="Capline-L" style="fill:none;stroke:#27AAE1;opacity:1;stroke-width:0.5;" x1="263" x2="3036" y1="1485.54" y2="1485.54"/>
  <line id="left-margin-Ultralight-S" style="fill:none;stroke:#00AEEF;stroke-width:0.5;opacity:1.0;" x1="511.408" x2="511.408" y1="600.785" y2="720.121"/>
  <line id="right-margin-Ultralight-S" style="fill:none;stroke:#00AEEF;stroke-width:0.5;opacity:1.0;" x1="608.014" x2="608.014" y1="600.785" y2="720.121"/>
  <line id="left-margin-Regular-S" style="fill:none;stroke:#00AEEF;stroke-width:0.5;opacity:1.0;" x1="1399.11" x2="1399.11" y1="600.785" y2="720.121"/>
  <line id="right-margin-Regular-S" style="fill:none;stroke:#00AEEF;stroke-width:0.5;opacity:1.0;" x1="1500.58" x2="1500.58" y1="600.785" y2="720.121"/>
  <line id="left-margin-Black-S" style="fill:none;stroke:#00AEEF;stroke-width:0.5;opacity:1.0;" x1="2881.45" x2="2881.45" y1="600.785" y2="720.121"/>
  <line id="right-margin-Black-S" style="fill:none;stroke:#00AEEF;stroke-width:0.5;opacity:1.0;" x1="2985.35" x2="2985.35" y1="600.785" y2="720.121"/>
 </g>
 <g id="Symbols">
  <g id="Black-S" transform="matrix(1 0 0 1 2881.45 696)">
   <path class="monochrome-0 multicolor-0:tintColor hierarchical-0:tertiary SFSymbolsPreviewWireframe" d="M29.0527-0.341797L36.8164-0.341797C37.3047-0.341797 37.5977-0.244141 37.9883 0.146484L43.457 5.61523C49.1211 11.2793 54.7852 11.2793 60.4492 5.61523L65.918 0.146484C66.3086-0.244141 66.6016-0.341797 67.0898-0.341797L74.8535-0.341797C82.8613-0.341797 86.8652-4.39453 86.8652-12.3535L86.8652-20.1172C86.8652-20.6055 87.0117-20.9473 87.3535-21.2891L92.8223-26.7578C98.4863-32.4219 98.4863-38.0859 92.8223-43.75L87.3535-49.2188C86.9629-49.6094 86.8652-49.9023 86.8652-50.3906L86.8652-58.1543C86.8652-66.1621 82.8125-70.166 74.8535-70.166L67.0898-70.166C66.6016-70.166 66.2598-70.3125 65.918-70.6543L60.4492-76.123C54.7363-81.8359 49.1211-81.8359 43.457-76.0742L37.9883-70.6543C37.6465-70.3125 37.3047-70.166 36.8164-70.166L29.0527-70.166C21.0449-70.166 17.041-66.2109 17.041-58.1543L17.041-50.3906C17.041-49.9023 16.8945-49.5605 16.5527-49.2188L11.084-43.75C5.41992-38.0859 5.41992-32.4219 11.084-26.7578L16.5527-21.2891C16.8945-20.9473 17.041-20.6055 17.041-20.1172L17.041-12.3535C17.041-4.3457 21.0938-0.341797 29.0527-0.341797Z"/>
   <path class="monochrome-1 multicolor-1:white hierarchical-1:primary SFSymbolsPreviewWireframe" d="M29.6486-27.462C29.6486-20.7635 34.9585-14.5341 41.5203-14.5341C46.9989-14.5341 50.0631-18.7263 51.2994-26.2139C51.4977-26.2169 51.6975-26.2154 51.8958-26.2139C52.3518-26.2124 52.8077-26.2338 53.2637-26.2796L53.2637-19.6395C53.2637-15.4105 55.6605-12.9375 59.7949-12.9375C66.4949-12.9375 72.7228-18.2489 72.7228-24.8107C72.7228-30.3168 68.5032-33.3809 60.9607-34.5897C60.9562-34.817 60.9867-34.9864 60.9882-35.1832C60.9897-35.6072 60.9682-36.0602 60.8965-36.4902L67.5595-36.4902C71.7885-36.4902 74.2615-38.8855 74.2615-43.0214C74.2615-49.7199 68.9546-55.9494 62.3899-55.9494C56.8868-55.9494 53.85-51.7571 52.6138-44.2466C52.3866-44.2436 52.2172-44.274 52.0189-44.2755C51.5644-44.277 51.1085-44.2267 50.6465-44.1809L50.6465-50.8439C50.6465-55.0729 48.2496-57.5459 44.1153-57.5459C37.4153-57.5459 31.1874-52.2345 31.1874-45.6727C31.1874-40.1666 35.4069-37.1314 42.928-35.8937C42.9295-35.6999 42.9295-35.503 42.928-35.3092C42.9265-34.8807 42.9175-34.4247 42.9938-33.9932L36.3506-33.9932C32.1216-33.9932 29.6486-31.5979 29.6486-27.462ZM49.0151-35.2417C49.0151-36.8694 50.3341-38.1779 51.9588-38.1779C53.5851-38.1779 54.895-36.807 54.895-35.2417C54.895-33.6185 53.5851-32.2995 51.9588-32.2995C50.3311-32.2995 49.0151-33.6764 49.0151-35.2417ZM50.0787-35.2417C50.0787-34.2152 50.9339-33.36 51.9588-33.36C52.9823-33.36 53.8345-34.2152 53.8345-35.2417C53.8345-36.2682 52.9853-37.1174 51.9588-37.1174C50.9339-37.1174 50.0787-36.2652 50.0787-35.2417Z"/>
  </g>
  <g id="Regular-S" transform="matrix(1 0 0 1 1399.11 696)">
   <path class="monochrome-0 multicolor-0:tintColor hierarchical-0:tertiary SFSymbolsPreviewWireframe" d="M27.7344-1.5625L35.6934-1.5625C36.4258-1.5625 36.9629-1.36719 37.5-0.830078L43.1641 4.78516C48.291 9.96094 53.1738 9.91211 58.3008 4.78516L63.916-0.830078C64.4531-1.36719 65.0391-1.5625 65.7715-1.5625L73.6816-1.5625C80.9082-1.5625 84.4238-4.98047 84.4238-12.3047L84.4238-20.2148C84.4238-20.9473 84.6191-21.4844 85.1562-22.0703L90.7227-27.6855C95.8984-32.8125 95.8496-37.6953 90.7227-42.8223L85.1562-48.4375C84.6191-49.0234 84.4238-49.5605 84.4238-50.293L84.4238-58.2031C84.4238-65.4785 80.957-68.9453 73.6816-68.9453L65.7715-68.9453C65.0391-68.9453 64.4531-69.1406 63.916-69.6777L58.3008-75.293C53.125-80.4688 48.291-80.4199 43.1641-75.293L37.5-69.6777C36.9629-69.1406 36.4258-68.9453 35.6934-68.9453L27.7344-68.9453C20.459-68.9453 17.041-65.5273 17.041-58.2031L17.041-50.293C17.041-49.5605 16.8457-49.0234 16.3086-48.4375L10.6934-42.8223C5.51758-37.6953 5.56641-32.8125 10.6934-27.6855L16.3086-22.0703C16.8457-21.4844 17.041-20.9473 17.041-20.2148L17.041-12.3047C17.041-5.0293 20.459-1.5625 27.7344-1.5625Z"/>
   <path class="monochrome-1 multicolor-1:white hierarchical-1:primary SFSymbolsPreviewWireframe" d="M29.3755-27.9791C29.3755-21.5505 34.9153-15.2423 40.6652-15.2423C45.7775-15.2423 48.4049-19.6394 50.8233-27.2335C50.9908-27.2352 51.1739-27.2491 51.3413-27.263C51.6278-27.2769 51.9143-27.2997 52.2008-27.3469L52.2008-19.8912C52.2008-16.0412 54.2746-13.8926 58.0286-13.8926C64.4434-13.8926 70.7654-19.4185 70.7654-25.1683C70.7654-30.3067 66.3422-32.9341 58.7255-35.3265C58.7378-35.5062 58.736-35.6615 58.7221-35.8429C58.7082-36.1156 58.6854-36.4005 58.6277-36.6765L66.0922-36.6765C69.9423-36.6765 72.0909-38.7641 72.0909-42.5043C72.0909-48.9329 66.5527-55.2411 60.8012-55.2411C55.6645-55.2411 53.0631-50.8439 50.6447-43.241C50.465-43.2394 50.3097-43.2376 50.1422-43.2237C49.8418-43.2098 49.5553-43.1748 49.2656-43.1277L49.2656-50.5922C49.2656-54.4422 47.1918-56.5909 43.4378-56.5909C37.023-56.5909 30.7009-51.0649 30.7009-45.315C30.7009-40.1767 35.1241-37.5614 42.7181-35.1569C42.7336-34.9771 42.7336-34.7957 42.7475-34.6159C42.7614-34.3555 42.786-34.069 42.8314-33.8069L35.3741-33.8069C31.5241-33.8069 29.3755-31.7192 29.3755-27.9791ZM47.0741-35.2417C47.0741-37.2608 48.7103-38.9062 50.7279-38.9062C52.7609-38.9062 54.3923-37.2488 54.3923-35.2417C54.3923-33.2103 52.7609-31.574 50.7279-31.574C48.7087-31.574 47.0741-33.2346 47.0741-35.2417ZM48.4237-35.2417C48.4237-33.976 49.4482-32.9514 50.7279-32.9514C51.9919-32.9514 53.0149-33.976 53.0149-35.2417C53.0149-36.5074 51.9935-37.5287 50.7279-37.5287C49.4482-37.5287 48.4237-36.5058 48.4237-35.2417Z"/>
  </g>
  <g id="Ultralight-S" transform="matrix(1 0 0 1 511.408 696)">
   <path class="monochrome-0 multicolor-0:tintColor hierarchical-0:tertiary SFSymbolsPreviewWireframe" d="M24.2378-4.28709L34.104-4.28709C35.0635-4.28709 35.7368-4.04637 36.4556-3.32762L43.4819 3.6045C46.9287 7.14553 49.6773 7.14211 53.1241 3.6045L60.147-3.32762C60.8658-4.04637 61.5425-4.28709 62.502-4.28709L72.3648-4.28709C77.3208-4.28709 79.2471-6.25194 79.2471-11.1694L79.2471-21.0322C79.2471-22.0371 79.5332-22.7104 80.2066-23.4326L87.1807-30.4101C90.6763-33.9023 90.6729-36.6055 87.1807-40.0977L80.2066-47.0752C79.5332-47.7974 79.2471-48.4707 79.2471-49.4756L79.2471-59.3384C79.2471-64.2525 77.3242-66.2207 72.3648-66.2207L62.502-66.2207C61.5425-66.2207 60.8658-66.4614 60.147-67.1802L53.1241-74.1123C49.6284-77.6988 46.9287-77.6953 43.4365-74.1123L36.4556-67.1802C35.7822-66.5069 35.0635-66.2207 34.104-66.2207L24.2378-66.2207C19.2783-66.2207 17.3589-64.2559 17.3589-59.3384L17.3589-49.4756C17.3589-48.4707 17.0728-47.7974 16.3994-47.0752L9.42189-40.0977C5.92627-36.6055 5.92968-33.9023 9.42189-30.4101L16.3994-23.4326C17.0728-22.7104 17.3589-22.0371 17.3589-21.0322L17.3589-11.1694C17.3589-6.25536 19.2783-4.28709 24.2378-4.28709Z"/>
   <path class="monochrome-1 multicolor-1:white hierarchical-1:primary SFSymbolsPreviewWireframe" d="M28.3588-29.0433C28.3588-23.0048 33.6443-17.0601 39.1079-17.0601C43.6253-17.0601 46.1173-20.9147 48.1888-28.4656C48.364-28.4512 48.5349-28.4612 48.7102-28.4713C49.0394-28.4813 49.3686-28.5201 49.6978-28.5833L49.6978-20.2533C49.6978-16.9622 51.313-15.2882 54.492-15.2882C60.5204-15.2882 66.4752-20.5637 66.4752-26.0273C66.4752-30.5547 62.6105-33.0467 55.0452-35.1081C55.0697-35.2834 55.0596-35.4587 55.0496-35.6439C55.0396-35.9875 55.0008-36.3311 54.9232-36.6459L63.282-36.6459C66.573-36.6459 68.2471-38.2711 68.2471-41.4401C68.2471-47.4786 62.9471-53.4233 57.498-53.4233C52.9562-53.4233 50.4741-49.5687 48.4027-41.989C48.2274-42.0034 48.0522-41.9934 47.8769-41.9834C47.5377-41.9733 47.2085-41.9345 46.9081-41.8713L46.9081-50.2302C46.9081-53.5212 45.2929-55.1952 42.1139-55.1952C36.0854-55.1952 30.1307-49.9197 30.1307-44.4561C30.1307-39.9287 33.9954-37.4367 41.5218-35.3753C41.5175-35.1756 41.5175-34.9903 41.5275-34.7906C41.5375-34.4715 41.5863-34.1423 41.6395-33.8375L33.3239-33.8375C30.0328-33.8375 28.3588-32.2123 28.3588-29.0433ZM43.336-35.2417C43.336-37.964 45.5469-40.228 48.2835-40.228C51.0158-40.228 53.2699-37.9884 53.2699-35.2417C53.2699-32.495 51.0158-30.2841 48.2835-30.2841C45.5613-30.2841 43.336-32.495 43.336-35.2417ZM45.6281-35.2417C45.6281-33.7581 46.7899-32.5962 48.2835-32.5962C49.7815-32.5962 50.9578-33.7581 50.9578-35.2417C50.9578-36.7253 49.7671-37.9159 48.2835-37.9159C46.7899-37.9159 45.6281-36.7397 45.6281-35.2417Z"/>
  </g>
 </g>
</svg>
